<?xml version="1.0" standalone="no"?>
<!DOCTYPE svg PUBLIC "-//W3C//DTD SVG 20010904//EN"
 "http://www.w3.org/TR/2001/REC-SVG-20010904/DTD/svg10.dtd">
<svg version="1.0" xmlns="http://www.w3.org/2000/svg"
 width="565.000000pt" height="549.000000pt" viewBox="0 0 565.000000 549.000000"
 preserveAspectRatio="xMidYMid meet">
<metadata>
Created by potrace 1.16, written by Peter Selinger 2001-2019
</metadata>
<g transform="translate(0.000000,549.000000) scale(0.100000,-0.100000)"
fill="#000000" stroke="none">
<path d="M3235 4830 l180 -180 335 0 335 0 -180 180 -180 180 -335 0 -335 0
180 -180z"/>
<path d="M4475 4830 l179 -179 96 -3 95 -3 3 -275 2 -276 180 -179 180 -180 0
638 0 637 -457 0 -458 0 180 -180z"/>
<path d="M540 4210 l0 -375 185 -185 185 -185 0 375 0 374 -185 185 -185 186
0 -375z"/>
<path d="M4830 2860 c0 -1023 0 -1030 20 -1030 20 0 20 7 20 1030 0 1023 0
1030 -20 1030 -20 0 -20 -7 -20 -1030z"/>
<path d="M540 3185 l0 -460 185 -185 185 -185 0 460 0 460 -185 185 -185 185
0 -460z"/>
<path d="M5190 2500 c0 -1023 0 -1030 20 -1030 20 0 20 7 20 1030 0 1023 0
1030 -20 1030 -20 0 -20 -7 -20 -1030z"/>
<path d="M4970 2465 l0 -65 60 0 60 0 0 65 0 65 -60 0 -60 0 0 -65z"/>
<path d="M540 1649 c0 -196 -3 -572 -7 -837 l-6 -482 234 0 c129 0 352 3 497
7 l264 6 -184 184 -183 183 -122 0 -123 0 0 463 0 462 -185 185 -185 185 0
-356z m290 -1014 l275 -275 -278 0 -277 0 0 275 c0 151 1 275 3 275 1 0 126
-124 277 -275z"/>
<path d="M4850 1495 l0 -80 180 -180 180 -180 0 80 0 80 -180 180 -180 180 0
-80z"/>
<path d="M4850 857 l0 -147 -455 0 c-250 0 -455 -3 -455 -8 0 -4 80 -87 178
-185 l177 -177 458 0 457 0 0 153 0 152 -180 180 -180 180 0 -148z"/>
<path d="M1880 525 l185 -185 95 0 95 0 -186 185 -185 185 -94 0 -95 0 185
-185z"/>
<path d="M2060 702 c0 -4 82 -90 183 -190 l183 -182 100 0 99 0 -190 190 -190
190 -92 0 c-51 0 -93 -4 -93 -8z m355 -182 l170 -170 -75 0 -75 0 -170 170
-170 170 75 0 75 0 170 -170z"/>
<path d="M3500 525 l185 -185 260 0 260 0 -185 185 -185 185 -260 0 -260 0
185 -185z"/>
</g>
</svg>
